<?xml version="1.0" encoding="UTF-8"?>
<!DOCTYPE svg PUBLIC "-//W3C//DTD SVG 1.1//EN" "http://www.w3.org/Graphics/SVG/1.1/DTD/svg11.dtd">
<!-- Creator: CorelDRAW 2019 (64-Bit) -->
<svg xmlns="http://www.w3.org/2000/svg" xml:space="preserve" width="148.167mm" height="111.125mm" version="1.1" style="shape-rendering:geometricPrecision; text-rendering:geometricPrecision; image-rendering:optimizeQuality; fill-rule:evenodd; clip-rule:evenodd"
viewBox="0 0 14816.66 11112.5"
 xmlns:xlink="http://www.w3.org/1999/xlink"
 xmlns:xodm="http://www.corel.com/coreldraw/odm/2003">
 <defs>
  <style type="text/css">
   <![CDATA[
    .str7 {stroke:#2B2A29;stroke-width:33.87;stroke-miterlimit:22.9256}
    .str2 {stroke:#22262A;stroke-width:8.47;stroke-miterlimit:22.9256}
    .str6 {stroke:#2B2A29;stroke-width:8.47;stroke-miterlimit:22.9256}
    .str3 {stroke:#FAB13C;stroke-width:8.47;stroke-miterlimit:22.9256}
    .str1 {stroke:#22262A;stroke-width:16.93;stroke-miterlimit:22.9256}
    .str4 {stroke:#2B2A29;stroke-width:16.93;stroke-miterlimit:22.9256}
    .str5 {stroke:#E53A24;stroke-width:16.93;stroke-miterlimit:22.9256}
    .str0 {stroke:#22262A;stroke-width:25.4;stroke-miterlimit:22.9256}
    .fil1 {fill:none}
    .fil12 {fill:#2B2A29}
    .fil13 {fill:#3A826B}
    .fil7 {fill:#474645}
    .fil0 {fill:#605E58}
    .fil2 {fill:#635E59}
    .fil10 {fill:#696764}
    .fil3 {fill:#787878}
    .fil11 {fill:#E63D24}
    .fil4 {fill:#EB4823}
    .fil14 {fill:url(#id0)}
    .fil5 {fill:url(#id1)}
    .fil8 {fill:url(#id2)}
    .fil9 {fill:url(#id3)}
    .fil6 {fill:url(#id4)}
   ]]>
  </style>
  <linearGradient id="id0" gradientUnits="userSpaceOnUse" x1="7790.71" y1="8863.75" x2="7877.97" y2="8913.15">
   <stop offset="0" style="stop-opacity:1; stop-color:#64B183"/>
   <stop offset="1" style="stop-opacity:1; stop-color:#2E2A5E"/>
  </linearGradient>
  <linearGradient id="id1" gradientUnits="userSpaceOnUse" x1="7249.87" y1="7597.1" x2="7135.19" y2="7124.21">
   <stop offset="0" style="stop-opacity:1; stop-color:#D1983D"/>
   <stop offset="1" style="stop-opacity:1; stop-color:#FCCB7C"/>
  </linearGradient>
  <linearGradient id="id2" gradientUnits="userSpaceOnUse" xlink:href="#id0" x1="233.29" y1="6418.7" x2="570.82" y2="6575.12">
  </linearGradient>
  <linearGradient id="id3" gradientUnits="userSpaceOnUse" xlink:href="#id0" x1="9223.16" y1="8218.33" x2="9111.2" y2="7800.12">
  </linearGradient>
  <linearGradient id="id4" gradientUnits="userSpaceOnUse" xlink:href="#id0" x1="7031.67" y1="10521.78" x2="7616.18" y2="10152.96">
  </linearGradient>
 </defs>
 <g id="Слой_x0020_1">
  <metadata id="CorelCorpID_0Corel-Layer"/>
  <g id="_3075275253456">
   <g id="_2544477831760">
    <path class="fil0" d="M8417.37 7242.73c646.59,-75.12 1285.86,-232.54 1930.56,-339.96l-15.64 38.86 12.35 13.9 -20.25 5.7 -0.28 0.7 -17.04 4.19c-641.31,180.93 -1210.21,350.19 -1889.7,276.61z"/>
   </g>
   <path class="fil1" d="M8417.37 7242.73c120.24,0 440.53,7.55 533.08,-30.64 3.16,-1.31 838.84,-150.74 842.27,-150.63 3.78,0.17 508.58,-136.14 553.57,-132.31 1,0.08 -192.25,62.19 -191.06,57.69"/>
   <path class="fil2 str0" d="M480.8 8197.42l250.12 -109.79 222.97 41.9 328.53 -147.87 70.98 169.77 -426.66 178.41 -117.38 -63.55 -250.13 109.8 -78.43 -178.67zm872.6 -45.99l-426.66 178.41 -117.38 -63.55 -250.13 109.8 78.42 178.66 253.59 169.96 590.02 -267.51 -127.86 -305.77z"/>
   <polygon class="fil3 str0" points="5667.93,4664.36 5850.94,4301.57 6272.01,4155.61 5922.03,4921.18 5709.55,4972.16 5605.2,5200.44 5808.67,5162.05 5588.55,5645.11 5020.58,5771.91 5447.41,4858.71 "/>
   <polygon class="fil3 str0" points="5530.97,4651.34 5713.98,4288.53 6135.06,4142.59 5785.08,4908.16 5572.6,4959.13 5468.22,5187.42 5671.7,5149.02 5451.6,5632.09 4883.62,5758.89 5310.46,4845.67 "/>
   <line class="fil1 str0" x1="5451.6" y1="5632.09" x2="5588.55" y2= "5645.11" />
   <line class="fil1 str0" x1="4883.62" y1="5758.89" x2="5020.58" y2= "5771.91" />
   <line class="fil1 str0" x1="5671.7" y1="5149.02" x2="5808.67" y2= "5162.05" />
   <line class="fil1 str0" x1="5785.08" y1="4908.16" x2="5922.03" y2= "4921.18" />
   <line class="fil1 str0" x1="6135.06" y1="4142.59" x2="6272.01" y2= "4155.61" />
   <line class="fil1 str0" x1="5572.6" y1="4959.13" x2="5709.55" y2= "4972.16" />
   <path class="fil0" d="M3708.02 7327.16c-76.38,-477.85 2369.41,-29.93 2985.66,-301.9 85.21,-37.61 151.41,-32.73 212.83,-67.71 10.5,35.47 -130.65,75.35 -145.42,81.93 -1036.79,463.03 -2837.72,-131.57 -3053.07,287.68z"/>
   <polygon class="fil1 str1" points="7203.98,7526.5 6788.27,7123.22 7601.89,6284.53 8017.6,6687.81 "/>
   <polyline class="fil1 str1" points="8017.6,6687.81 7364.5,6529.23 7610.78,7107.15 7069.67,6833.14 7203.98,7526.5 6788.27,7123.22 7487.31,7234.43 7195.07,6703.86 7797.44,6914.74 7601.89,6284.53 "/>
   <polygon class="fil1 str1" points="7028.12,7503.01 6612.41,7099.71 7426.06,6261.04 7841.75,6664.31 "/>
   <polyline class="fil1 str1" points="7841.75,6664.31 7188.67,6505.74 7434.93,7083.66 6893.84,6809.63 7028.12,7503.01 6612.41,7099.71 7311.45,7210.95 7019.23,6680.38 7621.58,6891.27 7426.06,6261.04 "/>
   <line class="fil1 str1" x1="7203.98" y1="7526.5" x2="7028.12" y2= "7503.01" />
   <line class="fil1 str1" x1="6788.27" y1="7123.22" x2="6612.41" y2= "7099.71" />
   <line class="fil1 str1" x1="8017.6" y1="6687.81" x2="7841.75" y2= "6664.31" />
   <polyline class="fil1 str1" points="8017.6,6687.81 7426.06,6261.04 7601.89,6284.53 7841.75,6664.31 "/>
   <line class="fil1 str1" x1="7203.98" y1="7526.5" x2="6612.41" y2= "7099.71" />
   <line class="fil1 str1" x1="6813.59" y1="7127.24" x2="7028.12" y2= "7503.01" />
   <polyline class="fil1 str1" points="6793.79,7128.59 7028.61,6670.72 7601.89,6284.53 "/>
   <polyline class="fil1 str1" points="7426.06,6261.04 7157.75,6742.36 6612.41,7099.71 "/>
   <polyline class="fil1 str1" points="7055.14,7506.61 7610.78,7107.15 7841.75,6664.31 "/>
   <polyline class="fil1 str1" points="8017.6,6687.81 7497.93,7018.74 7203.98,7526.5 "/>
   <path class="fil3" d="M7002.18 6872.71c189.52,-273.53 262.95,-316.85 514.78,-543.21l133.1 -114.22c-75.96,81.12 -252.78,275.56 -337.1,342.88 -227.41,181.56 -155.41,156.86 -310.78,314.55z"/>
   <path class="fil3" d="M6979.05 6809.93c212.27,-375.27 264.2,-187.24 469.78,-582.25l58.8 -100.14c-174.89,486.14 -194.74,274.6 -528.58,682.39z"/>
   <path class="fil3" d="M6961.83 6778.09c118.88,-251.8 322.19,-295.25 265.08,-383.74 -21.04,15.28 -27.57,-21.76 -29.43,-28.12 0.42,0.08 20.51,6.16 29.2,8.56 23.43,-17.35 69.19,-0.84 43.54,56.07 -16.58,36.78 -260.35,298.42 -308.39,347.23zm269.86 -387.9c1.05,-0.81 1.94,-1.68 2.34,-2.49 -0.79,0.91 -1.57,1.73 -2.34,2.49zm-2.44 -14.71c0.68,0.18 1.11,0.28 1.29,0.3 -0.25,-0.33 -0.71,-0.4 -1.29,-0.3z"/>
   <polygon class="fil0 str2" points="6768.4,7171.53 6559.52,7088.76 6892.21,6745.83 7085.68,6839.86 "/>
   <polygon class="fil0 str2" points="6750.52,7130.68 6541.66,7047.91 6874.33,6705 7067.81,6799.01 "/>
   <line class="fil1 str2" x1="6768.4" y1="7171.53" x2="6750.52" y2= "7130.68" />
   <line class="fil1 str2" x1="6559.52" y1="7088.76" x2="6541.66" y2= "7047.91" />
   <line class="fil1 str2" x1="7085.68" y1="6839.86" x2="7057.31" y2= "6804.74" />
   <path class="fil4 str2" d="M6735.25 7062.57c-10.32,-10.01 -10.3,-26.77 0.05,-37.43 10.34,-10.67 27.09,-11.21 37.41,-1.18 10.33,10.01 10.33,26.77 -0.03,37.42 -10.36,10.67 -27.1,11.2 -37.43,1.19z"/>
   <polygon class="fil4 str2" points="6817.1,7007.95 6799.27,6990.66 6918.53,6867.74 6936.34,6885.04 "/>
   <polygon class="fil4 str2" points="6708.22,6935.49 6777.85,6967.73 6961.83,6778.09 6892.21,6745.83 "/>
   <path class="fil1 str3" d="M7703.35 6221.6c-8.22,-9.17 -6.25,-19.54 2.15,-28.19"/>
   <path class="fil1 str3" d="M7560.71 6098.33c2.57,-5.6 22.75,-54.93 24.73,-56.69"/>
   <path class="fil1 str3" d="M7236.63 6333.63c-27.02,-26.23 -35.48,-37.61 -52.28,-70.9"/>
   <path class="fil1 str3" d="M7119.13 6350.75c-5.46,-6.42 -19.03,-24.92 -13.28,-33.06"/>
   <path class="fil1 str3" d="M7166.6 6442.2c18.46,-17.83 9.95,-24.73 19.79,-46.38"/>
   <path class="fil1 str3" d="M7161.98 6306.59c-7.91,-17.27 -7.97,-20.13 -8.25,-38.26"/>
   <path class="fil1 str3" d="M7247.74 6223.4c14.13,-13.72 36.34,-53 29.64,-72.14"/>
   <path class="fil1 str3" d="M7282.3 6307.34c3.59,-8.91 7.58,-19.91 12.38,-28.36"/>
   <path class="fil1 str3" d="M7516.42 6060.82c-0.08,-0.25 0.11,-0.16 0.08,-0.34"/>
   <path class="fil1 str3" d="M7417.48 6105.64c5.09,-21.21 8.68,-29.85 4.33,-51.27"/>
   <line class="fil1 str3" x1="7483.11" y1="6103.75" x2="7573.57" y2= "6116.26" />
   <path class="fil1 str3" d="M7474.58 5989.58c1.98,-4.91 7.11,-33.28 7.18,-33.39"/>
   <path class="fil1 str3" d="M7633.45 6168.91c7.56,-7.8 15.12,-15.59 22.67,-23.38"/>
   <path class="fil1 str3" d="M7750.14 6100.58c-6.95,13.8 -9.73,21.26 -25.28,20.87"/>
   <path class="fil1 str3" d="M7662.94 6258.04c18.18,-1.17 34.66,6.77 51.42,14.59"/>
   <path class="fil1 str3" d="M7759.28 6195.16c12.18,-12.58 17.75,-14.01 19.99,-31.02"/>
   <path class="fil1 str3" d="M7603.37 6210.32c-16.99,-18.73 -1.56,-27.9 -8.27,-38.26"/>
   <path class="fil1 str3" d="M6965.85 6753.93c-1.01,-2.06 -27.42,-86.74 -31.91,-92.7"/>
   <path class="fil1 str3" d="M7148.66 6777.79c-40.13,-38.92 -56.28,-31.88 -82.66,-49.94"/>
   <path class="fil1 str3" d="M6995.55 6639.32c15.77,-16.25 18.75,-14.13 32.83,-28.65"/>
   <path class="fil1 str3" d="M7032.18 6703.88c1.24,-0.78 60.2,-49.92 60.84,-50.67"/>
   <line class="fil1 str3" x1="6848.9" y1="6759.3" x2="6739.09" y2= "6844.39" />
   <path class="fil1 str3" d="M6907.28 6795.77c-0.23,68.58 -0.07,22.67 0,0z"/>
   <path class="fil1 str3" d="M6829.15 6876.3c-8.44,-7.79 -84.63,-78.08 0,0z"/>
   <path class="fil1 str3" d="M6903.95 6733.73c1.68,-3.51 9.85,-20.6 0,0z"/>
   <path class="fil1 str3" d="M6731.65 6791.78c-12.98,-26.75 6.49,-38.06 6.85,-53.85"/>
   <path class="fil1 str3" d="M6796.62 6688.42c3.05,-7.61 22.14,-59.59 24.68,-61.81"/>
   <path class="fil5" d="M6842.51 7618.8c76.81,124.07 291.34,130.37 479.14,14.08 187.8,-116.29 277.75,-311.14 200.93,-435.22 -76.83,-124.06 -291.37,-130.35 -479.15,-14.06 -187.8,116.29 -277.77,311.16 -200.92,435.2l0 0z"/>
   <path class="fil1 str3" d="M6842.51 7618.8c76.81,124.07 291.34,130.37 479.14,14.08 187.8,-116.29 277.75,-311.14 200.93,-435.22 -76.83,-124.06 -291.37,-130.35 -479.15,-14.06 -187.8,116.29 -277.77,311.16 -200.92,435.2z"/>
   <polygon class="fil0 str3" points="7407.17,7790.07 7457.69,7707.06 7278.96,7414.39 7271.32,7269.96 7504.61,7664.28 7496.18,7750.33 7434.04,7826.51 "/>
   <polygon class="fil0 str3" points="7351.51,7533.17 7101.63,7427.23 7170.92,7355.81 7318.97,7479.92 "/>
   <polygon class="fil2 str0" points="7928.65,9281.16 7656.16,9180.46 7240.79,9180.82 7783.97,9397.58 7986.61,9389.76 8148.57,9454.38 7957.73,9465.38 8299.84,9602.24 8838.59,9578.15 8182.41,9320.69 "/>
   <polygon class="fil2 str0" points="8045.17,9260.66 7772.68,9159.96 7357.3,9160.32 7900.5,9377.08 8103.1,9369.24 8265.1,9433.89 8074.25,9444.88 8416.34,9581.74 8955.09,9557.64 8298.92,9300.17 "/>
   <line class="fil1 str0" x1="7357.3" y1="9160.32" x2="7240.79" y2= "9180.82" />
   <path class="fil0" d="M7361.42 6744.32c27.03,-196.12 569.73,-1006.92 65.61,-1171.85l-65.61 -22.24c141.4,-30.13 266.15,-1.06 327.9,142.29 179.53,416.87 -113.78,748.79 -327.9,1051.8z"/>
   <path class="fil0" d="M6934.94 5678.16c-684.61,796.99 903.99,1436.11 1464.21,1563.71 -1122.94,-38.76 -2261.57,-1123.83 -1464.21,-1563.71z"/>
   <path class="fil1 str2" d="M6656.8 7039.93c-13.11,25.81 5.25,35.36 8.03,42.03"/>
   <path class="fil1 str2" d="M6527.63 7074.67c-5.5,34.46 -14.24,12.23 -1.61,49.2"/>
   <path class="fil1 str2" d="M6415.87 7092.93c-12.65,39.15 -17.24,24.75 -0.99,59.16"/>
   <path class="fil1 str2" d="M10351.18 6888.04c3.09,33.77 -19.84,47.57 11.87,77.32"/>
   <path class="fil1 str2" d="M10249.18 6905.41c-48.61,53.38 -2.74,78.09 -0.04,97.31"/>
   <path class="fil1 str2" d="M10135.32 6927.87c-48.75,8.15 4.53,98.47 5.12,101.96"/>
   <path class="fil1 str2" d="M9987.45 6959.5c3.8,2.32 -24.21,56.67 4.44,80.97 1.01,0.86 10.99,22.66 11.64,24.53"/>
   <path class="fil1 str2" d="M9860.22 6986.38c-7.24,92.75 -4.11,34.96 20.45,109.79"/>
   <path class="fil1 str2" d="M9742.3 7009.73c-23.91,38.89 11.43,104.04 19.78,106"/>
   <path class="fil1 str2" d="M9635.49 7029.9c-23.46,59.69 8.78,73.81 23.52,112.47"/>
   <path class="fil1 str2" d="M9528.39 7049.46c-36.01,6.39 3.88,105.84 12.05,123.83"/>
   <path class="fil1 str2" d="M9393.99 7073.38c-3.03,68.1 36,106.34 35.21,104.97"/>
   <path class="fil1 str2" d="M9290.68 7091.53c-24.51,54.53 -5.96,70.29 7.59,109.47"/>
   <path class="fil1 str2" d="M9164.66 7113.74c-18.52,117.94 -2.16,55.32 2.72,113.38"/>
   <path class="fil1 str2" d="M9047.02 7134.8c-10.62,98.43 19.43,62.71 27.58,99.48"/>
   <path class="fil1 str2" d="M8958.22 7151.13c-30.06,55.93 -7.19,55.46 1.09,89.93"/>
   <path class="fil1 str2" d="M8853.08 7171.17c-7.12,32.25 -23.17,38.35 -0.08,67.14l6.17 7.71"/>
   <path class="fil1 str2" d="M8772.05 7187.27c-16.79,52.25 -11.39,29.08 10.9,61.73"/>
   <path class="fil1 str2" d="M8652.65 7212.45c-22.29,33.82 -7.18,24.55 -10.13,44.3"/>
   <path class="fil1 str2" d="M8171.3 7178.45c-7.07,2.76 -10.23,40.01 -10.21,40.04"/>
   <path class="fil1 str2" d="M8044.85 7135.74c-3.74,30 -3.89,30.46 -8.39,58.91"/>
   <path class="fil1 str2" d="M7950.16 7100.7c-12.9,64.77 -29.86,45.16 -33.76,63.69"/>
   <path class="fil1 str2" d="M7861.94 7065.76c-3.99,17.32 -15.1,66.5 -42.09,64.18"/>
   <path class="fil1 str2" d="M7784.17 7033.05c-21.01,11.32 -23.31,69.97 -67.34,57.28l-4.05 6.32"/>
   <path class="fil1 str2" d="M7684.43 6988.33c-9.7,60.14 -0.93,50.25 -46.73,78.01"/>
   <path class="fil1 str2" d="M7596.39 6946.01c-22.03,101.29 -4.33,31.28 -39.4,84.38"/>
   <path class="fil1 str2" d="M7487.59 6996.59c38.36,0.43 55.06,-39.4 55.06,-72.79"/>
   <path class="fil1 str2" d="M7422.5 6962.31c74.13,-61.12 23.93,-2.4 59.77,-75.62"/>
   <path class="fil1 str2" d="M7356.28 6924.72c21.82,-8.08 70.39,-24.98 69.09,-59.55"/>
   <path class="fil1 str2" d="M7283.49 6879.97c52.88,-14.47 61.45,-3.64 84.38,-58.73"/>
   <path class="fil1 str2" d="M7219.41 6837.31c58.84,-15.82 64.92,-2.88 92.37,-50.79"/>
   <path class="fil1 str2" d="M7168.38 6800.92c58.72,-28.35 48.39,4.88 73.63,-60.49"/>
   <path class="fil1 str2" d="M7121.62 6765.51c70.78,-20.62 48.66,-12.48 72.55,-58.87"/>
   <path class="fil1 str2" d="M7069.11 6723.01c1.9,5.83 61.96,6.09 64.56,-51.17l3.61 -8.15"/>
   <path class="fil1 str2" d="M7019.06 6679.49c28.88,24.72 67.36,-56.77 67.57,-57.08"/>
   <path class="fil1 str2" d="M6975.13 6638.41c72.12,-12.94 41.3,-25.95 66.24,-55.9"/>
   <path class="fil1 str2" d="M6924.8 6587.45c31.64,-0.29 57.26,-21.15 66.99,-49.24"/>
   <path class="fil1 str2" d="M6884.48 6542.85c25.5,6.19 49.47,-43.17 57.05,-62.63"/>
   <path class="fil1 str2" d="M6842.08 6491.35c32.68,9.94 59.09,-59.21 59.88,-59.92"/>
   <path class="fil1 str2" d="M6806.76 6443.65c69.09,-49.36 47.29,-58.6 57.43,-66.11"/>
   <path class="fil1 str2" d="M6763.36 6376.36c18.36,-25.34 49.87,-6.19 57.64,-67.43l2.64 -2.93"/>
   <path class="fil1 str2" d="M6728.14 6310.22c70.72,-27.68 51.85,-43.19 73.17,-55.34"/>
   <path class="fil1 str2" d="M6693.12 6221.96c15.16,31.29 71.97,-17.65 85.44,-37.35"/>
   <path class="fil1 str2" d="M6672.92 6134.7c46.17,36.11 80.18,-30.86 94.39,-35.56"/>
   <path class="fil1 str2" d="M6668.37 6058.37c62.32,51.7 72.66,-14.21 95.98,-12.37"/>
   <path class="fil1 str2" d="M6675.39 5993.76c43.79,3.33 61.59,8.55 101.21,-16.75"/>
   <path class="fil1 str2" d="M6694.39 5928.05c3.03,30.21 93.07,18.14 95.84,-3.13"/>
   <path class="fil1 str2" d="M6719.45 5875.89c36.55,34.08 60.37,7.8 89.17,-0.56"/>
   <path class="fil1 str2" d="M6754.63 5824.27c11.02,0.54 53.68,28.68 68.58,5.19l6.09 2.1"/>
   <path class="fil1 str2" d="M6796.7 5778.05c8.4,20.27 47.54,9.85 61.93,2.57"/>
   <path class="fil1 str2" d="M6883.69 5743.34c-66.98,-22.42 -10.01,-3.35 0,0z"/>
   <path class="fil1 str2" d="M7383.69 6667.62c10.85,-5.4 23.37,-12.56 36.36,-5.04"/>
   <path class="fil1 str2" d="M7410.65 6600.94c12.43,-1.48 25.9,-1.14 37.52,1.55 0.64,3.12 6.47,6.25 6.98,11.8"/>
   <path class="fil1 str2" d="M7433.65 6547.82c44.55,2.92 21.73,-11 53.87,21.31"/>
   <path class="fil1 str2" d="M7455.46 6498.28c71.41,7.87 10.36,-3.59 71.89,13.76"/>
   <path class="fil1 str2" d="M7478.5 6445.72c25.65,-7.01 65.15,17.47 64.15,30.3"/>
   <path class="fil1 str2" d="M7499.92 6396.02c84.7,0.47 72.38,26.08 84.43,28.99"/>
   <path class="fil1 str2" d="M7521.54 6344.2c93.04,-14.98 38.69,-11.21 98.23,21.27"/>
   <path class="fil1 str2" d="M7545.86 6283.02c121.69,26.55 52.09,18.32 98.64,36.91"/>
   <path class="fil1 str2" d="M7564.84 6232.11c98.81,-29.97 91.43,34.52 110.4,23.94"/>
   <path class="fil1 str2" d="M7582.74 6180.19c11.26,1.16 90.39,-12.23 97.04,20.09 4.65,0.97 7.36,5.07 15.33,7.52"/>
   <path class="fil1 str2" d="M7598.45 6129.94c104.78,-7.46 42.64,-16.1 117.33,16.83"/>
   <path class="fil1 str2" d="M7613.17 6076.05c66,-34.11 94.39,21.8 114.82,24.19"/>
   <path class="fil1 str2" d="M7625.88 6019.28c56.52,-30.39 113.49,13.06 114.13,13.19"/>
   <path class="fil1 str2" d="M7634.57 5966.67c14.49,-38.29 109.87,2.9 110.23,2.99"/>
   <path class="fil1 str2" d="M7640.1 5905.44c63.59,-43.75 97.34,-2.19 102.96,-2.01"/>
   <path class="fil1 str2" d="M7639.51 5846.66c0.03,-8.46 24.17,-11.33 32.55,-14.22 4.71,-22.82 61.68,4.75 62.06,4.72"/>
   <path class="fil1 str2" d="M7635.06 5786.3c34.5,-33.27 78.33,-4.69 85.75,-5.2"/>
   <path class="fil1 str2" d="M7610.42 5724.92c37.31,-21.62 40.29,-23.1 82.7,-23.41"/>
   <path class="fil1 str2" d="M7669.39 5653.63c-42.13,7.49 -45.46,-12.47 -85.88,25.37"/>
   <path class="fil1 str2" d="M7636.74 5610.52c-10.29,-17.2 -74.93,-5.35 -83.44,24.99"/>
   <path class="fil1 str2" d="M7573.07 5563.96c-54.56,4.31 -52.45,39.07 -62.25,47.43"/>
   <path class="fil1 str2" d="M7461.99 5585.64c2.45,-34.61 26.87,-40.12 27.75,-44.42"/>
   <path class="fil1 str2" d="M7428.86 5540.46c-35.19,49.08 -11.08,15.46 0,0z"/>
   <polygon class="fil3 str0" points="4307.89,7977.03 4225.68,7849.46 4258.35,7686.26 4438.65,7943.81 4414.88,8021.87 4468.65,8098.67 4494.78,8025.88 4608.69,8188.15 4542.07,8395.04 4328.75,8084.83 "/>
   <polygon class="fil3 str0" points="4277.77,8018.67 4195.58,7891.12 4228.23,7727.9 4408.56,7985.45 4384.76,8063.51 4438.54,8140.3 4464.67,8067.52 4578.59,8229.77 4511.96,8436.67 4298.64,8126.47 "/>
   <line class="fil1 str0" x1="4578.59" y1="8229.77" x2="4608.69" y2= "8188.15" />
   <line class="fil1 str0" x1="4511.96" y1="8436.67" x2="4542.07" y2= "8395.04" />
   <path class="fil2 str0" d="M5916.55 6051.34l182.12 -40.24 162.34 15.36 239.22 -54.2 51.69 62.23 -310.68 65.39 -85.45 -23.28 -182.14 40.24 -57.1 -65.5zm635.37 -16.85l-310.68 65.39 -85.45 -23.28 -182.14 40.24 57.1 65.49 184.66 62.31 429.6 -98.07 -93.09 -112.08z"/>
   <path class="fil2 str0" d="M8143.34 4805.55l157.4 72.82 39.72 86.82 209.38 95.09 -99.97 52.14 -262.13 -125.61 8.96 -52.21 -157.4 -72.84 104.04 -56.21zm306.53 306.87l-262.13 -125.61 8.96 -52.21 -157.4 -72.84 -104.08 56.23 -42.86 117.9 377.46 170.47 180.05 -93.94z"/>
   <polygon class="fil3 str0" points="3978.7,10740.79 4206.66,10725.92 4589.67,10909.31 4138.99,10960.44 3950.38,10860.76 3815.98,10875.99 3994.46,10974.76 3710.7,11007.41 3208.47,10737.89 3753.89,10682.01 "/>
   <polygon class="fil3 str0" points="3866.55,10662.02 4094.52,10647.14 4477.51,10830.54 4026.83,10881.67 3838.23,10781.99 3703.84,10797.2 3882.32,10895.99 3598.54,10928.64 3096.3,10659.13 3641.75,10603.24 "/>
   <line class="fil1 str0" x1="3598.54" y1="10928.64" x2="3710.7" y2= "11007.41" />
   <line class="fil1 str0" x1="3096.3" y1="10659.13" x2="3208.47" y2= "10737.89" />
   <line class="fil1 str0" x1="3882.32" y1="10895.99" x2="3994.46" y2= "10974.76" />
   <line class="fil1 str0" x1="4026.83" y1="10881.67" x2="4138.99" y2= "10960.44" />
   <line class="fil1 str0" x1="4477.51" y1="10830.54" x2="4589.67" y2= "10909.31" />
   <line class="fil1 str0" x1="3838.23" y1="10781.99" x2="3950.38" y2= "10860.76" />
   <polygon class="fil1 str1" points="6081.28,9113.74 5886.3,9311.96 5486.37,8918.6 5681.33,8720.38 "/>
   <polyline class="fil1 str1" points="5681.33,8720.38 5603.04,9033.37 5881.31,8917.07 5747.96,9175.91 6081.28,9113.74 5886.3,9311.96 5942,8976.75 5686.34,9115.29 5789.56,8826.82 5486.37,8918.6 "/>
   <polygon class="fil1 str1" points="6069.41,9198.09 5874.43,9396.31 5474.5,9002.95 5669.49,8804.73 "/>
   <polyline class="fil1 str1" points="5669.49,8804.73 5591.19,9117.73 5869.44,9001.4 5736.11,9260.26 6069.41,9198.09 5874.43,9396.31 5930.13,9061.1 5674.47,9199.64 5777.7,8911.14 5474.5,9002.95 "/>
   <line class="fil1 str1" x1="6081.28" y1="9113.74" x2="6069.41" y2= "9198.09" />
   <line class="fil1 str1" x1="5886.3" y1="9311.96" x2="5874.43" y2= "9396.31" />
   <line class="fil1 str1" x1="5681.33" y1="8720.38" x2="5669.49" y2= "8804.73" />
   <polyline class="fil1 str1" points="5681.33,8720.38 5474.5,9002.95 5486.37,8918.6 5669.49,8804.73 "/>
   <line class="fil1 str1" x1="6081.28" y1="9113.74" x2="5874.43" y2= "9396.31" />
   <line class="fil1 str1" x1="5888.31" y1="9299.83" x2="6069.41" y2= "9198.09" />
   <polyline class="fil1 str1" points="5888.89,9309.34 5669.86,9195.09 5486.37,8918.6 "/>
   <polyline class="fil1 str1" points="5474.5,9002.95 5704.68,9133.33 5874.43,9396.31 "/>
   <polyline class="fil1 str1" points="6071.24,9185.12 5881.31,8917.07 5669.49,8804.73 "/>
   <polyline class="fil1 str1" points="5681.33,8720.38 5838.49,8970.96 6081.28,9113.74 "/>
   <path class="fil3" d="M5766.75 9208.45c-130.7,-91.88 -151.25,-127.28 -259.07,-248.92l-54.41 -64.28c38.71,36.75 131.46,122.27 163.5,162.95 86.41,109.78 74.79,75.13 149.98,150.25z"/>
   <path class="fil3" d="M5736.52 9219.35c-179.45,-103.16 -89.01,-127.47 -277.96,-227.47l-47.86 -28.55c232.79,85.59 131.16,94.4 325.82,256.02z"/>
   <path class="fil3" d="M5721.18 9227.5c-120.49,-57.91 -140.66,-155.63 -183.32,-128.53 7.26,10.16 -10.56,13.17 -13.62,14.05 0.05,-0.2 3.03,-9.82 4.21,-14 -8.25,-11.29 -0.16,-33.21 27.06,-20.71 17.61,8.1 142.4,125.97 165.67,149.19zm-185.32 -130.83c-0.38,-0.51 -0.8,-0.93 -1.18,-1.12 0.43,0.38 0.82,0.75 1.18,1.12zm-7.08 1.13c0.1,-0.33 0.15,-0.52 0.15,-0.62 -0.15,0.13 -0.18,0.33 -0.15,0.62z"/>
   <polygon class="fil0 str2" points="5909.42,9321.68 5869,9421.67 5705.49,9260.82 5751.26,9168.26 "/>
   <polygon class="fil0 str2" points="5889.76,9330.11 5849.34,9430.11 5685.81,9269.27 5731.58,9176.7 "/>
   <line class="fil1 str2" x1="5909.42" y1="9321.68" x2="5889.76" y2= "9330.11" />
   <line class="fil1 str2" x1="5751.26" y1="9168.26" x2="5734.3" y2= "9181.76" />
   <path class="fil4 str2" d="M5857.01 9337.22c-4.85,4.92 -12.91,4.86 -17.98,-0.13 -5.09,-5.02 -5.28,-13.06 -0.43,-17.98 4.83,-4.92 12.88,-4.86 17.95,0.15 5.11,4.99 5.3,13.04 0.46,17.96z"/>
   <polygon class="fil4 str2" points="5831.06,9297.75 5822.68,9306.25 5764.08,9248.59 5772.45,9240.09 "/>
   <polygon class="fil4 str2" points="5795.89,9349.78 5811.62,9316.46 5721.18,9227.5 5705.49,9260.82 "/>
   <path class="fil1 str3" d="M5456.49 8869.7c-4.42,3.92 -9.41,2.93 -13.52,-1.14"/>
   <path class="fil1 str3" d="M5396.85 8937.76c-2.68,-1.25 -26.3,-11.09 -27.13,-12.07"/>
   <path class="fil1 str3" d="M5508.71 9094.11c-12.66,12.9 -18.14,16.91 -34.2,24.87"/>
   <path class="fil1 str3" d="M5516.55 9150.57c-3.08,2.6 -12.02,9.06 -15.91,6.28"/>
   <path class="fil1 str3" d="M5560.61 9128.08c-8.48,-8.91 -11.84,-4.84 -22.19,-9.63"/>
   <path class="fil1 str3" d="M5495.51 9129.86c-8.33,3.74 -9.7,3.75 -18.41,3.84"/>
   <path class="fil1 str3" d="M5455.84 9088.4c-6.53,-6.82 -25.32,-17.6 -34.52,-14.46"/>
   <path class="fil1 str3" d="M5496.26 9072.1c-4.28,-1.74 -9.54,-3.7 -13.56,-6.04"/>
   <path class="fil1 str3" d="M5378.69 8958.89c-0.12,0.05 -0.07,-0.04 -0.15,-0.04"/>
   <path class="fil1 str3" d="M5399.88 9006.54c-10.18,-2.52 -14.31,-4.27 -24.6,-2.24"/>
   <line class="fil1 str3" x1="5399.19" y1="8975.02" x2="5405.48" y2= "8931.64" />
   <path class="fil1 str3" d="M5344.34 8978.74c-2.35,-0.97 -15.95,-3.52 -16,-3.55"/>
   <path class="fil1 str3" d="M5430.96 8903.07c-3.72,-3.65 -7.42,-7.31 -11.14,-10.96"/>
   <path class="fil1 str3" d="M5398.56 8846.83c6.59,3.37 10.16,4.74 9.91,12.2"/>
   <path class="fil1 str3" d="M5473.86 8889.19c-0.51,-8.69 3.35,-16.6 7.17,-24.61"/>
   <path class="fil1 str3" d="M5443.97 8842.76c-5.99,-5.89 -6.65,-8.58 -14.82,-9.7"/>
   <path class="fil1 str3" d="M5450.76 8917.64c-9.08,8.1 -13.41,0.66 -18.43,3.86"/>
   <path class="fil1 str3" d="M5709.6 9225.5c-0.99,0.48 -41.72,12.88 -44.6,15.02"/>
   <path class="fil1 str3" d="M5721.67 9137.83c-18.84,19.13 -15.49,26.89 -24.25,39.5"/>
   <path class="fil1 str3" d="M5654.69 9210.87c-7.77,-7.64 -6.73,-9.06 -13.65,-15.86"/>
   <path class="fil1 str3" d="M5685.81 9193.5c-0.38,-0.61 -23.79,-29.08 -24.14,-29.39"/>
   <line class="fil1 str3" x1="5711.79" y1="9281.67" x2="5752.3" y2= "9334.65" />
   <path class="fil1 str3" d="M5729.49 9253.74c32.91,0.35 10.88,0.12 0,0z"/>
   <path class="fil1 str3" d="M5767.9 9291.53c-3.77,4.03 -37.77,40.35 0,0z"/>
   <path class="fil1 str3" d="M5699.69 9255.14c-1.68,-0.82 -9.85,-4.79 0,0z"/>
   <path class="fil1 str3" d="M5727 9338.06c-12.89,6.12 -18.25,-3.26 -25.83,-3.47"/>
   <path class="fil1 str3" d="M5677.59 9306.51c-3.64,-1.48 -28.53,-10.82 -29.58,-12.03"/>
   <polygon class="fil0 str3" points="6208.47,9017.06 6168.79,8992.53 6027.7,9077.37 5958.34,9080.55 6148.41,8969.87 6189.69,8974.2 6226.06,9004.28 "/>
   <polygon class="fil0 str3" points="6084.97,9042.92 6033.27,9162.54 5999.22,9129.04 6059.28,9058.37 "/>
   <polygon class="fil6" points="7084.15,10601.93 7174.08,10235.15 7323.12,10336.79 7448.88,9887.76 7770.47,10431.99 7372.14,10684.2 "/>
   <polygon class="fil1 str4" points="7084.15,10601.93 7174.08,10235.15 7323.12,10336.79 7448.88,9887.76 7770.47,10431.99 7372.14,10684.2 "/>
   <polygon class="fil7 str4" points="7133.43,10570.71 7223.34,10203.95 7372.38,10305.61 7498.14,9856.56 7819.74,10400.79 7421.42,10653.02 "/>
   <polyline class="fil1 str5" points="7421.42,10653.02 7328.92,10516 7428.02,10372.69 7566.55,10273.48 7560.23,10076.22 7488.58,9954.9 "/>
   <polyline class="fil1 str5" points="7428.02,10372.69 7552.86,10397.22 7749.1,10281.24 "/>
   <polygon class="fil8" points="213.33,6465.46 406.13,6399 403.6,6496.37 644.22,6422.11 491.23,6727.31 260.22,6620.25 "/>
   <polygon class="fil1 str4" points="213.33,6465.46 406.13,6399 403.6,6496.37 644.22,6422.11 491.23,6727.31 260.22,6620.25 "/>
   <polygon class="fil7 str4" points="241.91,6478.69 434.7,6412.23 432.15,6509.62 672.79,6435.37 519.81,6740.53 288.81,6633.49 "/>
   <polyline class="fil1 str5" points="288.81,6633.49 323.94,6551.43 417.97,6554.51 503.54,6588.36 591.25,6527.78 625.33,6459.78 "/>
   <polyline class="fil1 str5" points="417.97,6554.51 443.36,6618.34 553.41,6673.5 "/>
   <polygon class="fil9" points="9280.92,8205.85 9077.94,8082.56 9167.1,8012.37 8921.56,7852.03 9308.78,7762.05 9384.73,8048.67 "/>
   <polygon class="fil1 str4" points="9280.92,8205.85 9077.94,8082.56 9167.1,8012.37 8921.56,7852.03 9308.78,7762.05 9384.73,8048.67 "/>
   <polygon class="fil7 str4" points="9271.52,8170.38 9068.55,8047.09 9157.7,7976.93 8912.15,7816.58 9299.38,7726.62 9375.33,8013.21 "/>
   <polyline class="fil1 str5" points="9375.33,8013.21 9275.67,8042.79 9208.46,7956.25 9175.13,7854.4 9055.63,7820.86 8969.32,7840.92 "/>
   <polyline class="fil1 str5" points="9208.46,7956.25 9246.77,7886.01 9214.32,7746.37 "/>
   <polygon class="fil10 str6" points="7479.73,8047.34 8197.9,8462.72 8139.21,8474.5 8010.14,8695.25 8002.38,8686.29 8111.84,8499.65 8055.35,8465.51 7984.02,8477.88 7952.82,8461.35 7913.01,8527.44 7877.91,8506.92 7877.51,8420.78 7609.79,8263.88 7459.07,8499.42 7437.09,8505.94 7616.87,8200.69 7544.67,8156.9 7475.07,8274.03 7465.54,8271.51 7518.26,8181.08 7488.94,8164.11 "/>
   <polygon class="fil10 str4" points="7337,8040.52 7377.83,8065.76 7113.88,8517.2 7120.01,8456.59 7239.13,8244.72 7283.32,8131.49 "/>
   <path class="fil11 str6" d="M7105.04 8535.01c-3.87,-2.24 -5,-7.52 -2.52,-11.82 2.49,-4.28 7.64,-5.96 11.51,-3.72 3.87,2.24 5.01,7.54 2.52,11.84 -2.49,4.28 -7.62,5.94 -11.51,3.7z"/>
   <polyline class="fil1 str6" points="7239.13,8244.72 7275.07,8204.43 7337.05,8097.28 7377.83,8065.76 "/>
   <polygon class="fil10 str6" points="7428.26,8091.13 8098.27,8478.65 8042.18,8491.96 7913.16,8712.75 7906.08,8704.16 8015.46,8517.48 7962.78,8485.54 7894.67,8499.78 7865.54,8484.45 7825.81,8550.57 7793.05,8531.42 7795.2,8446.73 7545.48,8300.26 7395.48,8536.22 7374.42,8543.26 7554.06,8237.92 7486.75,8196.95 7417.23,8314.15 7408.26,8311.95 7460.96,8221.5 7433.6,8205.68 "/>
   <polyline class="fil1 str6" points="7486.75,8196.95 7537.21,8198.32 7556.35,8165.23 "/>
   <polyline class="fil1 str6" points="7545.48,8300.26 7604.19,8289.64 7731.57,8367.51 7808.92,8370.18 7834.42,8326.06 "/>
   <polyline class="fil1 str6" points="7865.54,8484.45 7866.02,8417.93 7897.91,8362.79 "/>
   <polyline class="fil1 str6" points="7795.2,8446.73 7828.1,8438.07 7878.22,8351.4 "/>
   <polyline class="fil1 str6" points="7962.78,8485.54 7931.88,8432.88 7953.74,8395.08 "/>
   <polyline class="fil1 str6" points="8015.46,8517.48 8004.32,8464.26 8021.65,8434.33 "/>
   <path class="fil11 str6" d="M7404.28 8329.65c-3.87,-2.24 -4.99,-7.53 -2.52,-11.83 2.48,-4.29 7.62,-5.96 11.49,-3.7 3.87,2.22 5,7.52 2.52,11.8 -2.49,4.3 -7.63,5.96 -11.49,3.73z"/>
   <path class="fil11 str6" d="M7368.91 8552.81c-3.87,-2.24 -4.99,-7.56 -2.5,-11.84 2.47,-4.28 7.62,-5.94 11.49,-3.7 3.88,2.24 5,7.52 2.52,11.82 -2.49,4.28 -7.64,5.94 -11.51,3.72z"/>
   <path class="fil11 str6" d="M7905.37 8718.6c-3.87,-2.24 -5.01,-7.53 -2.52,-11.81 2.49,-4.3 7.62,-5.96 11.51,-3.72 3.87,2.24 4.99,7.54 2.52,11.82 -2.49,4.28 -7.64,5.95 -11.51,3.71z"/>
   <polygon class="fil12 str6" points="7513.14,8665.02 7503.79,8717.81 7479.6,8733.12 7467.27,8700.96 "/>
   <polygon class="fil12 str6" points="7560.66,8487.73 7521.09,8525.35 7501.35,8515.47 7518.51,8475.1 "/>
   <polygon class="fil12 str6" points="7851,8635.33 7841.65,8688.12 7817.45,8703.45 7805.13,8671.28 "/>
   <line class="fil1 str7" x1="7623.33" y1="8446.1" x2="7665.67" y2= "8504.24" />
   <path class="fil13 str4" d="M7339.12 8205.98c2.19,11.26 1.53,21.85 -1.46,23.66 -3.02,1.79 -7.23,-5.86 -9.44,-17.11 -2.19,-11.25 -1.53,-21.83 1.47,-23.64 3.01,-1.81 7.24,5.84 9.43,17.09z"/>
   <path class="fil13 str4" d="M7354.32 8197.37c-0.2,12.39 -2.86,23.29 -5.93,24.35 -3.08,1.05 -5.4,-8.12 -5.18,-20.52 0.18,-12.38 2.85,-23.28 5.92,-24.33 3.07,-1.07 5.39,8.11 5.19,20.5z"/>
   <path class="fil13 str4" d="M7369.57 8190.24c-2.08,12.84 -6.21,23.61 -9.24,24.05 -3.01,0.43 -3.75,-9.65 -1.66,-22.49 2.07,-12.84 6.2,-23.61 9.22,-24.04 2.99,-0.44 3.77,9.63 1.68,22.48z"/>
   <path class="fil13 str4" d="M7385.11 8189.07c-2.95,12.94 -7.75,23.53 -10.7,23.66 -2.95,0.13 -2.95,-10.26 0,-23.18 2.96,-12.93 7.75,-23.52 10.72,-23.65 2.94,-0.13 2.94,10.23 -0.02,23.17z"/>
   <polyline class="fil1 str4" points="7385.13,8165.9 7367.89,8167.76 7348.92,8176.93 7329.69,8188.89 "/>
   <polyline class="fil1 str4" points="7374.41,8212.73 7360.33,8214.29 7348.39,8221.72 7337.66,8229.64 "/>
   <polygon class="fil14" points="7782.29,8882.13 7844.3,8854.38 7835.9,8889.78 7912.61,8858.29 7843.59,8971.94 7783.94,8937.43 "/>
   <polygon class="fil1 str4" points="7782.29,8882.13 7844.3,8854.38 7835.9,8889.78 7912.61,8858.29 7843.59,8971.94 7783.94,8937.43 "/>
   <polygon class="fil7 str4" points="7789.67,8886.41 7851.68,8858.65 7843.28,8894.05 7920.01,8862.55 7850.99,8976.23 7791.33,8941.71 "/>
   <polyline class="fil1 str5" points="7791.33,8941.71 7808.13,8911.27 7835.59,8910.6 7858.12,8921.3 7888.71,8897.64 7904.1,8872.31 "/>
   <polyline class="fil1 str5" points="7835.59,8910.6 7838.06,8933.3 7866.13,8951.25 "/>
   <polygon class="fil10 str6" points="1192.91,10080.1 1598,9356.07 1610.61,9414.59 1833.2,9540.51 1824.35,9548.38 1636.15,9441.59 1602.83,9498.56 1616.2,9569.74 1600.13,9601.15 1666.78,9640.01 1646.75,9675.41 1560.64,9677.02 1407.58,9946.97 1645.24,10094.31 1652.06,10116.19 1344.26,9940.78 1301.52,10013.62 1419.62,10081.52 1417.25,10091.1 1326.08,10039.66 1309.55,10069.24 "/>
   <polygon class="fil10 str4" points="1188.12,10222.92 1212.77,10181.72 1667.94,10439.19 1607.25,10433.95 1393.69,10317.86 1279.85,10275.28 "/>
   <path class="fil11 str6" d="M1685.87 10447.8c-2.18,3.9 -7.45,5.09 -11.77,2.68 -4.34,-2.43 -6.06,-7.56 -3.88,-11.46 2.19,-3.9 7.46,-5.1 11.77,-2.68 4.33,2.44 6.06,7.54 3.88,11.46z"/>
   <polyline class="fil1 str6" points="1393.69,10317.86 1352.9,10282.51 1244.86,10222.05 1212.77,10181.72 "/>
   <polygon class="fil10 str6" points="1237.43,10130.95 1615.36,9455.47 1629.47,9511.37 1852.07,9637.21 1843.58,9644.42 1655.35,9537.73 1624.18,9590.85 1639.38,9658.75 1624.46,9688.1 1691.14,9726.88 1672.47,9759.91 1587.76,9758.99 1444.86,10010.74 1682.93,10157.36 1690.27,10178.32 1382.41,10003.06 1342.42,10070.95 1460.58,10138.77 1458.51,10147.77 1367.33,10096.37 1351.88,10123.97 "/>
   <polyline class="fil1 str6" points="1342.42,10070.95 1343.04,10020.47 1309.7,10001.8 "/>
   <polyline class="fil1 str6" points="1444.86,10010.74 1433.4,9952.19 1509.45,9823.73 1511.02,9746.36 1466.54,9721.46 "/>
   <path class="fil11 str6" d="M1476.26 10151.53c-2.19,3.9 -7.46,5.09 -11.79,2.67 -4.31,-2.41 -6.06,-7.55 -3.89,-11.45 2.19,-3.9 7.48,-5.09 11.79,-2.67 4.33,2.42 6.06,7.55 3.89,11.45z"/>
   <path class="fil11 str6" d="M1699.9 10183.7c-2.19,3.89 -7.46,5.09 -11.79,2.67 -4.33,-2.42 -6.05,-7.54 -3.88,-11.45 2.19,-3.9 7.46,-5.08 11.79,-2.66 4.31,2.4 6.06,7.54 3.88,11.44z"/>
   <polygon class="fil12 str6" points="1810.05,10037.89 1862.97,10046.48 1878.63,10070.45 1846.64,10083.23 "/>
   <polygon class="fil12 str6" points="1632.08,9992.9 1670.27,10031.91 1660.67,10051.8 1620.06,10035.22 "/>
   <path class="fil13 str4" d="M1353.55 10218.42c11.22,-2.35 21.81,-1.84 23.67,1.14 1.85,2.98 -5.76,7.3 -16.97,9.67 -11.23,2.35 -21.82,1.84 -23.68,-1.14 -1.84,-2.98 5.75,-7.31 16.98,-9.67z"/>
   <path class="fil13 str4" d="M1344.7 10203.36c12.4,0.02 23.32,2.52 24.44,5.58 1.1,3.06 -8.05,5.5 -20.43,5.47 -12.39,-0.02 -23.34,-2.52 -24.42,-5.57 -1.12,-3.06 8.03,-5.51 20.41,-5.48z"/>
   <path class="fil13 str4" d="M1337.34 10188.21c12.9,1.88 23.71,5.86 24.19,8.88 0.48,2.99 -9.56,3.9 -22.44,2.01 -12.88,-1.9 -23.71,-5.88 -24.17,-8.9 -0.49,-2.99 9.57,-3.9 22.42,-1.99z"/>
   <path class="fil13 str4" d="M1335.96 10172.69c12.98,2.76 23.63,7.4 23.81,10.37 0.18,2.95 -10.21,3.08 -23.17,0.31 -12.95,-2.77 -23.62,-7.41 -23.79,-10.36 -0.18,-2.96 10.19,-3.11 23.15,-0.32z"/>
   <polyline class="fil1 str4" points="1312.81,10173.01 1314.92,10190.2 1324.35,10209.04 1336.57,10228.09 "/>
   <polyline class="fil1 str4" points="1359.77,10183.06 1361.53,10197.09 1369.14,10208.94 1377.22,10219.56 "/>
  </g>
 </g>
</svg>
