<?xml version="1.0" encoding="UTF-8"?>
<!DOCTYPE svg PUBLIC "-//W3C//DTD SVG 1.1//EN" "http://www.w3.org/Graphics/SVG/1.1/DTD/svg11.dtd">
<!-- Creator: CorelDRAW 2019 (64-Bit) -->
<svg xmlns="http://www.w3.org/2000/svg" xml:space="preserve" width="11.9062mm" height="11.9062mm" version="1.1" style="shape-rendering:geometricPrecision; text-rendering:geometricPrecision; image-rendering:optimizeQuality; fill-rule:evenodd; clip-rule:evenodd"
viewBox="0 0 1190.62 1190.62"
 xmlns:xlink="http://www.w3.org/1999/xlink"
 xmlns:xodm="http://www.corel.com/coreldraw/odm/2003">
 <defs>
  <style type="text/css">
   <![CDATA[
    .str0 {stroke:black;stroke-width:79.37;stroke-miterlimit:22.9256}
    .fil0 {fill:none}
    .fil1 {fill:black}
   ]]>
  </style>
 </defs>
 <g id="Слой_x0020_1">
  <metadata id="CorelCorpID_0Corel-Layer"/>
  <path class="fil0 str0" d="M1057.98 381.45c109.92,263.06 -14.22,565.42 -277.27,675.34 -263.06,109.92 -565.42,-14.22 -675.34,-277.27 -109.93,-263.06 14.21,-565.42 277.27,-675.34"/>
  <line class="fil0 str0" x1="958.59" y1="332.14" x2="552.29" y2= "829.36" />
  <line class="fil0 str0" x1="557.64" y1="818.68" x2="353.9" y2= "458.6" />
  <line class="fil0 str0" x1="365.06" y1="476.3" x2="568.34" y2= "668.89" />
  <line class="fil0 str0" x1="939.27" y1="357.19" x2="560.39" y2= "665.09" />
  <path class="fil1 str0" d="M905.01 370.85l-316.7 265.98c-1.02,0.83 -2.08,1.55 -3.18,2.16 -5.38,12.19 -21.71,19.74 -34.92,7.16l-174.44 -166.24c-2.84,0.19 -5.9,0.31 -9.06,0.37l191.89 332.11 355.21 -431.49c-3.1,-3.14 -6.03,-6.51 -8.8,-10.05z"/>
 </g>
</svg>
